{"accessors":[{"name":"Box017_1_positions","componentType":5126,"count":24,"min":[-883022.6875,262815.0625,-244931.09375],"max":[-765207.5625,271816.1875,-234868.359375],"type":"VEC3","bufferView":0,"byteOffset":0},{"name":"Box017_1_normals","componentType":5126,"count":24,"min":[-1,-1,-1],"max":[1,1,1],"type":"VEC3","bufferView":0,"byteOffset":10224},{"name":"Box017_1_texcoords","componentType":5126,"count":24,"min":[0,0],"max":[1,1],"type":"VEC2","bufferView":1,"byteOffset":0},{"name":"Box017_1_0_indices","componentType":5123,"count":36,"min":[0],"max":[23],"type":"SCALAR","bufferView":2,"byteOffset":0},{"name":"Box018_1_positions","componentType":5126,"count":24,"min":[-883022.6875,59734.96875,-244931.09375],"max":[-765207.5625,68736.109375,-234868.359375],"type":"VEC3","bufferView":0,"byteOffset":288},{"name":"Box018_1_normals","componentType":5126,"count":24,"min":[-1,-1,-1],"max":[1,1,1],"type":"VEC3","bufferView":0,"byteOffset":10512},{"name":"Box018_1_texcoords","componentType":5126,"count":24,"min":[0,0],"max":[1,1],"type":"VEC2","bufferView":1,"byteOffset":192},{"name":"Box018_1_0_indices","componentType":5123,"count":36,"min":[0],"max":[23],"type":"SCALAR","bufferView":2,"byteOffset":72},{"name":"Box019_1_positions","componentType":5126,"count":24,"min":[-726139.4375,15226.953125,-204369.0625],"max":[-720165.375,321123.5625,114839.921875],"type":"VEC3","bufferView":0,"byteOffset":576},{"name":"Box019_1_normals","componentType":5126,"count":24,"min":[-1,-1,-1],"max":[1,1,1],"type":"VEC3","bufferView":0,"byteOffset":10800},{"name":"Box019_1_texcoords","componentType":5126,"count":24,"min":[0,0],"max":[1,1],"type":"VEC2","bufferView":1,"byteOffset":384},{"name":"Box019_1_0_indices","componentType":5123,"count":36,"min":[0],"max":[23],"type":"SCALAR","bufferView":2,"byteOffset":144},{"name":"Box020_1_positions","componentType":5126,"count":24,"min":[-923999.625,17729.21484375,-219509.203125],"max":[-720353.875,115614.765625,115467.40625],"type":"VEC3","bufferView":0,"byteOffset":864},{"name":"Box020_1_normals","componentType":5126,"count":24,"min":[-1,-1,-1],"max":[1,1,1],"type":"VEC3","bufferView":0,"byteOffset":11088},{"name":"Box020_1_texcoords","componentType":5126,"count":24,"min":[0,0],"max":[1,1],"type":"VEC2","bufferView":1,"byteOffset":576},{"name":"Box020_1_0_indices","componentType":5123,"count":36,"min":[0],"max":[23],"type":"SCALAR","bufferView":2,"byteOffset":216},{"name":"Box021_1_positions","componentType":5126,"count":24,"min":[-883022.6875,161275,-244931.09375],"max":[-765207.5625,170276.125,-234868.359375],"type":"VEC3","bufferView":0,"byteOffset":1152},{"name":"Box021_1_normals","componentType":5126,"count":24,"min":[-1,-1,-1],"max":[1,1,1],"type":"VEC3","bufferView":0,"byteOffset":11376},{"name":"Box021_1_texcoords","componentType":5126,"count":24,"min":[0,0],"max":[1,1],"type":"VEC2","bufferView":1,"byteOffset":768},{"name":"Box021_1_0_indices","componentType":5123,"count":36,"min":[0],"max":[23],"type":"SCALAR","bufferView":2,"byteOffset":288},{"name":"Box022_1_positions","componentType":5126,"count":24,"min":[-777387,59734.96875,-239419.796875],"max":[-768637.125,68736.109375,-205679],"type":"VEC3","bufferView":0,"byteOffset":1440},{"name":"Box022_1_normals","componentType":5126,"count":24,"min":[-1,-1,-1],"max":[1,1,1],"type":"VEC3","bufferView":0,"byteOffset":11664},{"name":"Box022_1_texcoords","componentType":5126,"count":24,"min":[0,0],"max":[1,1],"type":"VEC2","bufferView":1,"byteOffset":960},{"name":"Box022_1_0_indices","componentType":5123,"count":36,"min":[0],"max":[23],"type":"SCALAR","bufferView":2,"byteOffset":360},{"name":"Cylinder007_1_positions","componentType":5126,"count":78,"min":[-725403.5625,-4306.6953125,-218697.4375],"max":[-706678.6875,336451.375,-200257.0625],"type":"VEC3","bufferView":0,"byteOffset":1728},{"name":"Cylinder007_1_normals","componentType":5126,"count":78,"min":[-1,-1,-0.9847999811172485],"max":[1,1,0.9847999811172485],"type":"VEC3","bufferView":0,"byteOffset":11952},{"name":"Cylinder007_1_texcoords","componentType":5126,"count":78,"min":[-0.027799999341368675,0],"max":[0.9721999764442444,1],"type":"VEC2","bufferView":1,"byteOffset":1152},{"name":"Cylinder007_1_0_indices","componentType":5123,"count":216,"min":[0],"max":[77],"type":"SCALAR","bufferView":2,"byteOffset":432},{"name":"Box023_1_positions","componentType":5126,"count":24,"min":[-926201.75,15226.953125,-219285.921875],"max":[-920227.6875,321123.5625,114839.921875],"type":"VEC3","bufferView":0,"byteOffset":2664},{"name":"Box023_1_normals","componentType":5126,"count":24,"min":[-1,-1,-1],"max":[1,1,1],"type":"VEC3","bufferView":0,"byteOffset":12888},{"name":"Box023_1_texcoords","componentType":5126,"count":24,"min":[0,0],"max":[1,1],"type":"VEC2","bufferView":1,"byteOffset":1776},{"name":"Box023_1_0_indices","componentType":5123,"count":36,"min":[0],"max":[23],"type":"SCALAR","bufferView":2,"byteOffset":864},{"name":"Cylinder008_1_positions","componentType":5126,"count":78,"min":[-938681.1875,-4306.6953125,102806.8125],"max":[-919956.3125,336451.375,121247.1875],"type":"VEC3","bufferView":0,"byteOffset":2952},{"name":"Cylinder008_1_normals","componentType":5126,"count":78,"min":[-1,-1,-0.9847999811172485],"max":[1,1,0.9847999811172485],"type":"VEC3","bufferView":0,"byteOffset":13176},{"name":"Cylinder008_1_texcoords","componentType":5126,"count":78,"min":[-0.027799999341368675,0],"max":[0.9721999764442444,1],"type":"VEC2","bufferView":1,"byteOffset":1968},{"name":"Cylinder008_1_0_indices","componentType":5123,"count":216,"min":[0],"max":[77],"type":"SCALAR","bufferView":2,"byteOffset":936},{"name":"Box024_1_positions","componentType":5126,"count":24,"min":[-879871.5,262815.0625,-239419.796875],"max":[-871121.625,271816.1875,-205679],"type":"VEC3","bufferView":0,"byteOffset":3888},{"name":"Box024_1_normals","componentType":5126,"count":24,"min":[-1,-1,-1],"max":[1,1,1],"type":"VEC3","bufferView":0,"byteOffset":14112},{"name":"Box024_1_texcoords","componentType":5126,"count":24,"min":[0,0],"max":[1,1],"type":"VEC2","bufferView":1,"byteOffset":2592},{"name":"Box024_1_0_indices","componentType":5123,"count":36,"min":[0],"max":[23],"type":"SCALAR","bufferView":2,"byteOffset":1368},{"name":"Cylinder009_1_positions","componentType":5126,"count":78,"min":[-1287280.375,-4306.6953125,102806.8125],"max":[-1268555.625,336451.375,121247.1875],"type":"VEC3","bufferView":0,"byteOffset":4176},{"name":"Cylinder009_1_normals","componentType":5126,"count":78,"min":[-1,-1,-0.9847999811172485],"max":[1,1,0.9847999811172485],"type":"VEC3","bufferView":0,"byteOffset":14400},{"name":"Cylinder009_1_texcoords","componentType":5126,"count":78,"min":[-0.027799999341368675,0],"max":[0.9721999764442444,1],"type":"VEC2","bufferView":1,"byteOffset":2784},{"name":"Cylinder009_1_0_indices","componentType":5123,"count":216,"min":[0],"max":[77],"type":"SCALAR","bufferView":2,"byteOffset":1440},{"name":"Cylinder010_1_positions","componentType":5126,"count":78,"min":[-725403.5625,-4306.6953125,102806.8125],"max":[-706678.6875,336451.375,121247.1875],"type":"VEC3","bufferView":0,"byteOffset":5112},{"name":"Cylinder010_1_normals","componentType":5126,"count":78,"min":[-1,-1,-0.9847999811172485],"max":[1,1,0.9847999811172485],"type":"VEC3","bufferView":0,"byteOffset":15336},{"name":"Cylinder010_1_texcoords","componentType":5126,"count":78,"min":[-0.027799999341368675,0],"max":[0.9721999764442444,1],"type":"VEC2","bufferView":1,"byteOffset":3408},{"name":"Cylinder010_1_0_indices","componentType":5123,"count":216,"min":[0],"max":[77],"type":"SCALAR","bufferView":2,"byteOffset":1872},{"name":"Box025_1_positions","componentType":5126,"count":24,"min":[-879871.5,161274.984375,-239419.796875],"max":[-871121.625,170276.125,-205679],"type":"VEC3","bufferView":0,"byteOffset":6048},{"name":"Box025_1_normals","componentType":5126,"count":24,"min":[-1,-1,-1],"max":[1,1,1],"type":"VEC3","bufferView":0,"byteOffset":16272},{"name":"Box025_1_texcoords","componentType":5126,"count":24,"min":[0,0],"max":[1,1],"type":"VEC2","bufferView":1,"byteOffset":4032},{"name":"Box025_1_0_indices","componentType":5123,"count":36,"min":[0],"max":[23],"type":"SCALAR","bufferView":2,"byteOffset":2304},{"name":"Box026_1_positions","componentType":5126,"count":24,"min":[-879871.5,59734.96875,-239419.796875],"max":[-871121.625,68736.109375,-205679],"type":"VEC3","bufferView":0,"byteOffset":6336},{"name":"Box026_1_normals","componentType":5126,"count":24,"min":[-1,-1,-1],"max":[1,1,1],"type":"VEC3","bufferView":0,"byteOffset":16560},{"name":"Box026_1_texcoords","componentType":5126,"count":24,"min":[0,0],"max":[1,1],"type":"VEC2","bufferView":1,"byteOffset":4224},{"name":"Box026_1_0_indices","componentType":5123,"count":36,"min":[0],"max":[23],"type":"SCALAR","bufferView":2,"byteOffset":2376},{"name":"Cylinder011_1_positions","componentType":5126,"count":78,"min":[-1287280.375,-4306.6953125,-218697.4375],"max":[-1268555.625,336451.375,-200257.0625],"type":"VEC3","bufferView":0,"byteOffset":6624},{"name":"Cylinder011_1_normals","componentType":5126,"count":78,"min":[-1,-1,-0.9847999811172485],"max":[1,1,0.9847999811172485],"type":"VEC3","bufferView":0,"byteOffset":16848},{"name":"Cylinder011_1_texcoords","componentType":5126,"count":78,"min":[-0.027799999341368675,0],"max":[0.9721999764442444,1],"type":"VEC2","bufferView":1,"byteOffset":4416},{"name":"Cylinder011_1_0_indices","componentType":5123,"count":216,"min":[0],"max":[77],"type":"SCALAR","bufferView":2,"byteOffset":2448},{"name":"Box027_1_positions","componentType":5126,"count":24,"min":[-923999.625,119269.25,-219509.203125],"max":[-720353.875,217154.796875,115467.40625],"type":"VEC3","bufferView":0,"byteOffset":7560},{"name":"Box027_1_normals","componentType":5126,"count":24,"min":[-1,-1,-1],"max":[1,1,1],"type":"VEC3","bufferView":0,"byteOffset":17784},{"name":"Box027_1_texcoords","componentType":5126,"count":24,"min":[0,0],"max":[1,1],"type":"VEC2","bufferView":1,"byteOffset":5040},{"name":"Box027_1_0_indices","componentType":5123,"count":36,"min":[0],"max":[23],"type":"SCALAR","bufferView":2,"byteOffset":2880},{"name":"Box028_1_positions","componentType":5126,"count":24,"min":[-777387,262815.0625,-239419.796875],"max":[-768637.125,271816.1875,-205679],"type":"VEC3","bufferView":0,"byteOffset":7848},{"name":"Box028_1_normals","componentType":5126,"count":24,"min":[-1,-1,-1],"max":[1,1,1],"type":"VEC3","bufferView":0,"byteOffset":18072},{"name":"Box028_1_texcoords","componentType":5126,"count":24,"min":[0,0],"max":[1,1],"type":"VEC2","bufferView":1,"byteOffset":5232},{"name":"Box028_1_0_indices","componentType":5123,"count":36,"min":[0],"max":[23],"type":"SCALAR","bufferView":2,"byteOffset":2952},{"name":"Box029_1_positions","componentType":5126,"count":24,"min":[-1344453.25,318978.5,-252831.53125],"max":[-657523.9375,343352.84375,147195.03125],"type":"VEC3","bufferView":0,"byteOffset":8136},{"name":"Box029_1_normals","componentType":5126,"count":24,"min":[-1,-1,-1],"max":[1,1,1],"type":"VEC3","bufferView":0,"byteOffset":18360},{"name":"Box029_1_texcoords","componentType":5126,"count":24,"min":[0,0],"max":[1,1],"type":"VEC2","bufferView":1,"byteOffset":5424},{"name":"Box029_1_0_indices","componentType":5123,"count":36,"min":[0],"max":[23],"type":"SCALAR","bufferView":2,"byteOffset":3024},{"name":"Box030_1_positions","componentType":5126,"count":24,"min":[-777387,161274.984375,-239419.796875],"max":[-768637.125,170276.125,-205679],"type":"VEC3","bufferView":0,"byteOffset":8424},{"name":"Box030_1_normals","componentType":5126,"count":24,"min":[-1,-1,-1],"max":[1,1,1],"type":"VEC3","bufferView":0,"byteOffset":18648},{"name":"Box030_1_texcoords","componentType":5126,"count":24,"min":[0,0],"max":[1,1],"type":"VEC2","bufferView":1,"byteOffset":5616},{"name":"Box030_1_0_indices","componentType":5123,"count":36,"min":[0],"max":[23],"type":"SCALAR","bufferView":2,"byteOffset":3096},{"name":"Box031_1_positions","componentType":5126,"count":24,"min":[-1276903.625,6968.5625,113708.1015625],"max":[-719047.75,324725.3125,119682.1953125],"type":"VEC3","bufferView":0,"byteOffset":8712},{"name":"Box031_1_normals","componentType":5126,"count":24,"min":[-1,-1,-1],"max":[1,1,1],"type":"VEC3","bufferView":0,"byteOffset":18936},{"name":"Box031_1_texcoords","componentType":5126,"count":24,"min":[0,0],"max":[1,1],"type":"VEC2","bufferView":1,"byteOffset":5808},{"name":"Box031_1_0_indices","componentType":5123,"count":36,"min":[0],"max":[23],"type":"SCALAR","bufferView":2,"byteOffset":3168},{"name":"Cylinder012_1_positions","componentType":5126,"count":78,"min":[-938681.1875,-4306.6953125,-218697.4375],"max":[-919956.3125,336451.375,-200257.0625],"type":"VEC3","bufferView":0,"byteOffset":9000},{"name":"Cylinder012_1_normals","componentType":5126,"count":78,"min":[-1,-1,-0.9847999811172485],"max":[1,1,0.9847999811172485],"type":"VEC3","bufferView":0,"byteOffset":19224},{"name":"Cylinder012_1_texcoords","componentType":5126,"count":78,"min":[-0.027799999341368675,0],"max":[0.9721999764442444,1],"type":"VEC2","bufferView":1,"byteOffset":6000},{"name":"Cylinder012_1_0_indices","componentType":5123,"count":216,"min":[0],"max":[77],"type":"SCALAR","bufferView":2,"byteOffset":3240},{"name":"Box032_1_positions","componentType":5126,"count":24,"min":[-923999.625,220809.28125,-219509.203125],"max":[-720353.875,318694.8125,115467.40625],"type":"VEC3","bufferView":0,"byteOffset":9936},{"name":"Box032_1_normals","componentType":5126,"count":24,"min":[-1,-1,-1],"max":[1,1,1],"type":"VEC3","bufferView":0,"byteOffset":20160},{"name":"Box032_1_texcoords","componentType":5126,"count":24,"min":[0,0],"max":[1,1],"type":"VEC2","bufferView":1,"byteOffset":6624},{"name":"Box032_1_0_indices","componentType":5123,"count":36,"min":[0],"max":[23],"type":"SCALAR","bufferView":2,"byteOffset":3672}],"asset":{"generator":"obj2gltf","version":"2.0"},"buffers":[{"name":"Desk","byteLength":31008,"uri":"data:application/octet-stream;base64,"}],"bufferViews":[{"name":"bufferView_0","buffer":0,"byteLength":20448,"byteOffset":0,"byteStride":12,"target":34962},{"name":"bufferView_1","buffer":0,"byteLength":6816,"byteOffset":20448,"byteStride":8,"target":34962},{"name":"bufferView_2","buffer":0,"byteLength":3744,"byteOffset":27264,"target":34963}],"materials":[{"name":"03___Default","pbrMetallicRoughness":{"baseColorFactor":[0.2627,0.102,0.0196,1],"metallicFactor":0,"roughnessFactor":0.99},"emissiveFactor":[0,0,0],"alphaMode":"OPAQUE","doubleSided":false},{"name":"_crayfishdiffuse","pbrMetallicRoughness":{"baseColorFactor":[0.7882,0.5569,0.4941,1],"metallicFactor":0,"roughnessFactor":0.97},"emissiveFactor":[0,0,0],"alphaMode":"OPAQUE","doubleSided":false},{"name":"02___Default","pbrMetallicRoughness":{"baseColorFactor":[0.5882,0.5882,0.5882,1],"metallicFactor":0,"roughnessFactor":0.99},"emissiveFactor":[0,0,0],"alphaMode":"OPAQUE","doubleSided":false}],"meshes":[{"name":"Box017_1","primitives":[{"attributes":{"POSITION":0,"NORMAL":1,"TEXCOORD_0":2},"indices":3,"material":0,"mode":4}]},{"name":"Box018_1","primitives":[{"attributes":{"POSITION":4,"NORMAL":5,"TEXCOORD_0":6},"indices":7,"material":0,"mode":4}]},{"name":"Box019_1","primitives":[{"attributes":{"POSITION":8,"NORMAL":9,"TEXCOORD_0":10},"indices":11,"material":1,"mode":4}]},{"name":"Box020_1","primitives":[{"attributes":{"POSITION":12,"NORMAL":13,"TEXCOORD_0":14},"indices":15,"material":1,"mode":4}]},{"name":"Box021_1","primitives":[{"attributes":{"POSITION":16,"NORMAL":17,"TEXCOORD_0":18},"indices":19,"material":0,"mode":4}]},{"name":"Box022_1","primitives":[{"attributes":{"POSITION":20,"NORMAL":21,"TEXCOORD_0":22},"indices":23,"material":0,"mode":4}]},{"name":"Cylinder007_1","primitives":[{"attributes":{"POSITION":24,"NORMAL":25,"TEXCOORD_0":26},"indices":27,"material":2,"mode":4}]},{"name":"Box023_1","primitives":[{"attributes":{"POSITION":28,"NORMAL":29,"TEXCOORD_0":30},"indices":31,"material":2,"mode":4}]},{"name":"Cylinder008_1","primitives":[{"attributes":{"POSITION":32,"NORMAL":33,"TEXCOORD_0":34},"indices":35,"material":2,"mode":4}]},{"name":"Box024_1","primitives":[{"attributes":{"POSITION":36,"NORMAL":37,"TEXCOORD_0":38},"indices":39,"material":0,"mode":4}]},{"name":"Cylinder009_1","primitives":[{"attributes":{"POSITION":40,"NORMAL":41,"TEXCOORD_0":42},"indices":43,"material":2,"mode":4}]},{"name":"Cylinder010_1","primitives":[{"attributes":{"POSITION":44,"NORMAL":45,"TEXCOORD_0":46},"indices":47,"material":2,"mode":4}]},{"name":"Box025_1","primitives":[{"attributes":{"POSITION":48,"NORMAL":49,"TEXCOORD_0":50},"indices":51,"material":0,"mode":4}]},{"name":"Box026_1","primitives":[{"attributes":{"POSITION":52,"NORMAL":53,"TEXCOORD_0":54},"indices":55,"material":0,"mode":4}]},{"name":"Cylinder011_1","primitives":[{"attributes":{"POSITION":56,"NORMAL":57,"TEXCOORD_0":58},"indices":59,"material":2,"mode":4}]},{"name":"Box027_1","primitives":[{"attributes":{"POSITION":60,"NORMAL":61,"TEXCOORD_0":62},"indices":63,"material":1,"mode":4}]},{"name":"Box028_1","primitives":[{"attributes":{"POSITION":64,"NORMAL":65,"TEXCOORD_0":66},"indices":67,"material":0,"mode":4}]},{"name":"Box029_1","primitives":[{"attributes":{"POSITION":68,"NORMAL":69,"TEXCOORD_0":70},"indices":71,"material":0,"mode":4}]},{"name":"Box030_1","primitives":[{"attributes":{"POSITION":72,"NORMAL":73,"TEXCOORD_0":74},"indices":75,"material":0,"mode":4}]},{"name":"Box031_1","primitives":[{"attributes":{"POSITION":76,"NORMAL":77,"TEXCOORD_0":78},"indices":79,"material":1,"mode":4}]},{"name":"Cylinder012_1","primitives":[{"attributes":{"POSITION":80,"NORMAL":81,"TEXCOORD_0":82},"indices":83,"material":2,"mode":4}]},{"name":"Box032_1","primitives":[{"attributes":{"POSITION":84,"NORMAL":85,"TEXCOORD_0":86},"indices":87,"material":1,"mode":4}]}],"nodes":[{"name":"Box017","mesh":0},{"name":"Box018","mesh":1},{"name":"Box019","mesh":2},{"name":"Box020","mesh":3},{"name":"Box021","mesh":4},{"name":"Box022","mesh":5},{"name":"Cylinder007","mesh":6},{"name":"Box023","mesh":7},{"name":"Cylinder008","mesh":8},{"name":"Box024","mesh":9},{"name":"Cylinder009","mesh":10},{"name":"Cylinder010","mesh":11},{"name":"Box025","mesh":12},{"name":"Box026","mesh":13},{"name":"Cylinder011","mesh":14},{"name":"Box027","mesh":15},{"name":"Box028","mesh":16},{"name":"Box029","mesh":17},{"name":"Box030","mesh":18},{"name":"Box031","mesh":19},{"name":"Cylinder012","mesh":20},{"name":"Box032","mesh":21}],"scene":0,"scenes":[{"nodes":[0,1,2,3,4,5,6,7,8,9,10,11,12,13,14,15,16,17,18,19,20,21]}]}
