{
  "accessors": [
    {
      "bufferView": 2,
      "componentType": 5126,
      "count": 1496,
      "max": [
        -0.94450002908706665,
        1.7433600425720215,
        1.0834399461746216
      ],
      "min": [
        -1.5449800491333008,
        1.1335999965667725,
        -0.00029399999766610563
      ],
      "type": "VEC3"
    },
    {
      "bufferView": 2,
      "byteOffset": 17952,
      "componentType": 5126,
      "count": 1496,
      "max": [
        0.99998927116394043,
        0.99998492002487183,
        1
      ],
      "min": [
        -0.99998867511749268,
        -0.99998801946640015,
        -1
      ],
      "type": "VEC3"
    },
    {
      "bufferView": 3,
      "componentType": 5126,
      "count": 1496,
      "max": [
        0.99998331069946289,
        0.99998927116394043,
        1,
        1
      ],
      "min": [
        -0.99998325109481812,
        -0.99998337030410767,
        -1,
        -1
      ],
      "type": "VEC4"
    },
    {
      "bufferView": 3,
      "byteOffset": 23936,
      "componentType": 5126,
      "count": 1496,
      "max": [
        1,
        1,
        1,
        1
      ],
      "min": [
        1,
        1,
        1,
        1
      ],
      "type": "VEC4"
    },
    {
      "bufferView": 1,
      "componentType": 5126,
      "count": 1496,
      "max": [
        22.519552230834961,
        22.560455322265625
      ],
      "min": [
        -74.474830627441406,
        0.60900002717971802
      ],
      "type": "VEC2"
    },
    {
      "bufferView": 0,
      "componentType": 5125,
      "count": 2061,
      "max": [
        1495
      ],
      "min": [
        0
      ],
      "type": "SCALAR"
    },
    {
      "bufferView": 2,
      "byteOffset": 35904,
      "componentType": 5126,
      "count": 4,
      "max": [
        -0.080729998648166656,
        1.9199099540710449,
        0.95944499969482422
      ],
      "min": [
        -0.1424500048160553,
        1.5599100589752197,
        0.95931398868560791
      ],
      "type": "VEC3"
    },
    {
      "bufferView": 2,
      "byteOffset": 35952,
      "componentType": 5126,
      "count": 4,
      "max": [
        -0.00022874546993989497,
        -0.00035986219882033765,
        -0.99999988079071045
      ],
      "min": [
        -0.00025639988598413765,
        -0.0003652285085991025,
        -0.99999994039535522
      ],
      "type": "VEC3"
    },
    {
      "bufferView": 3,
      "byteOffset": 47872,
      "componentType": 5126,
      "count": 4,
      "max": [
        -1,
        2.5230731353076408e-06,
        0.00025639956584200263,
        1
      ],
      "min": [
        -1,
        -4.205534196444205e-07,
        0.00022874564456287771,
        1
      ],
      "type": "VEC4"
    },
    {
      "bufferView": 3,
      "byteOffset": 47936,
      "componentType": 5126,
      "count": 4,
      "max": [
        1,
        1,
        1,
        1
      ],
      "min": [
        1,
        1,
        1,
        1
      ],
      "type": "VEC4"
    },
    {
      "bufferView": 0,
      "byteOffset": 8244,
      "componentType": 5125,
      "count": 6,
      "max": [
        3
      ],
      "min": [
        0
      ],
      "type": "SCALAR"
    },
    {
      "bufferView": 2,
      "byteOffset": 36000,
      "componentType": 5126,
      "count": 3,
      "max": [
        -1.2439099550247192,
        0.32576999068260193,
        1.0740400552749634
      ],
      "min": [
        -1.264739990234375,
        0.31086000800132751,
        1.0676900148391724
      ],
      "type": "VEC3"
    },
    {
      "bufferView": 2,
      "byteOffset": 36036,
      "componentType": 5126,
      "count": 3,
      "max": [
        -0.56269955635070801,
        -0.81066477298736572,
        -0.16183894872665405
      ],
      "min": [
        -0.56269955635070801,
        -0.81066477298736572,
        -0.16183894872665405
      ],
      "type": "VEC3"
    },
    {
      "bufferView": 3,
      "byteOffset": 48000,
      "componentType": 5126,
      "count": 3,
      "max": [
        0.82149434089660645,
        -0.57021677494049072,
        6.3521787296849652e-07,
        1
      ],
      "min": [
        0.82149434089660645,
        -0.57021677494049072,
        6.3521787296849652e-07,
        1
      ],
      "type": "VEC4"
    },
    {
      "bufferView": 3,
      "byteOffset": 48048,
      "componentType": 5126,
      "count": 3,
      "max": [
        1,
        1,
        1,
        1
      ],
      "min": [
        1,
        1,
        1,
        1
      ],
      "type": "VEC4"
    },
    {
      "bufferView": 0,
      "byteOffset": 8268,
      "componentType": 5125,
      "count": 3,
      "max": [
        2
      ],
      "min": [
        0
      ],
      "type": "SCALAR"
    },
    {
      "bufferView": 2,
      "byteOffset": 36072,
      "componentType": 5126,
      "count": 3952,
      "max": [
        0.00030000001424923539,
        2.0404200553894043,
        1.6015000343322754
      ],
      "min": [
        -1.5003299713134766,
        -0.0086099999025464058,
        -0.00074799999129027128
      ],
      "type": "VEC3"
    },
    {
      "bufferView": 2,
      "byteOffset": 83496,
      "componentType": 5126,
      "count": 3952,
      "max": [
        0.99998462200164795,
        1,
        1
      ],
      "min": [
        -0.99998754262924194,
        -0.99998748302459717,
        -1
      ],
      "type": "VEC3"
    },
    {
      "bufferView": 3,
      "byteOffset": 48096,
      "componentType": 5126,
      "count": 3952,
      "max": [
        1,
        0.9999842643737793,
        1,
        1
      ],
      "min": [
        -1,
        -0.99999827146530151,
        -1,
        -1
      ],
      "type": "VEC4"
    },
    {
      "bufferView": 3,
      "byteOffset": 111328,
      "componentType": 5126,
      "count": 3952,
      "max": [
        1,
        1,
        1,
        1
      ],
      "min": [
        1,
        1,
        1,
        1
      ],
      "type": "VEC4"
    },
    {
      "bufferView": 1,
      "byteOffset": 11968,
      "componentType": 5126,
      "count": 3952,
      "max": [
        137.91793823242188,
        133.72166442871094
      ],
      "min": [
        -153.4918212890625,
        -154.40957641601562
      ],
      "type": "VEC2"
    },
    {
      "bufferView": 0,
      "byteOffset": 8280,
      "componentType": 5125,
      "count": 5370,
      "max": [
        3951
      ],
      "min": [
        0
      ],
      "type": "SCALAR"
    },
    {
      "bufferView": 2,
      "byteOffset": 130920,
      "componentType": 5126,
      "count": 269,
      "max": [
        -0.37514001131057739,
        0.73988997936248779,
        1.1974799633026123
      ],
      "min": [
        -1.291450023651123,
        0.071400001645088196,
        1.0554399490356445
      ],
      "type": "VEC3"
    },
    {
      "bufferView": 2,
      "byteOffset": 134148,
      "componentType": 5126,
      "count": 269,
      "max": [
        0.98686593770980835,
        0.99988210201263428,
        0.32573360204696655
      ],
      "min": [
        -0.99426984786987305,
        -0.99974721670150757,
        -0.99024581909179688
      ],
      "type": "VEC3"
    },
    {
      "bufferView": 3,
      "byteOffset": 174560,
      "componentType": 5126,
      "count": 269,
      "max": [
        0.99974912405014038,
        0.99999827146530151,
        4.537420318229124e-05,
        1
      ],
      "min": [
        -0.99988770484924316,
        -0.99997693300247192,
        -4.5320102799450979e-05,
        1
      ],
      "type": "VEC4"
    },
    {
      "bufferView": 3,
      "byteOffset": 178864,
      "componentType": 5126,
      "count": 269,
      "max": [
        1,
        1,
        1,
        1
      ],
      "min": [
        1,
        1,
        1,
        1
      ],
      "type": "VEC4"
    },
    {
      "bufferView": 0,
      "byteOffset": 29760,
      "componentType": 5125,
      "count": 300,
      "max": [
        268
      ],
      "min": [
        0
      ],
      "type": "SCALAR"
    },
    {
      "bufferView": 2,
      "byteOffset": 137376,
      "componentType": 5126,
      "count": 115,
      "max": [
        -0.0084833987057209015,
        2.0404200553894043,
        1.3080307245254517
      ],
      "min": [
        -1.5027201175689697,
        -0.00042999998549930751,
        -0.00066700001480057836
      ],
      "type": "VEC3"
    },
    {
      "bufferView": 2,
      "byteOffset": 138756,
      "componentType": 5126,
      "count": 115,
      "max": [
        2.8391832529450767e-05,
        3.6256464227335528e-05,
        1
      ],
      "min": [
        -0.0003343567659612745,
        -1,
        -1
      ],
      "type": "VEC3"
    },
    {
      "bufferView": 3,
      "byteOffset": 183168,
      "componentType": 5126,
      "count": 115,
      "max": [
        0,
        0,
        0,
        1
      ],
      "min": [
        0,
        0,
        0,
        1
      ],
      "type": "VEC4"
    },
    {
      "bufferView": 3,
      "byteOffset": 185008,
      "componentType": 5126,
      "count": 115,
      "max": [
        1,
        1,
        1,
        1
      ],
      "min": [
        1,
        1,
        1,
        1
      ],
      "type": "VEC4"
    },
    {
      "bufferView": 0,
      "byteOffset": 30960,
      "componentType": 5125,
      "count": 138,
      "max": [
        114
      ],
      "min": [
        0
      ],
      "type": "SCALAR"
    }
  ],
  "asset": {
    "generator": "Sketchfab (OSG glTF plugin)",
    "version": "2.0"
  },
  "bufferViews": [
    {
      "buffer": 0,
      "byteLength": 31512,
      "byteOffset": 0,
      "name": "floatBufferViews",
      "target": 34963
    },
    {
      "buffer": 0,
      "byteLength": 43584,
      "byteOffset": 31512,
      "byteStride": 8,
      "name": "floatBufferViews",
      "target": 34962
    },
    {
      "buffer": 0,
      "byteLength": 140136,
      "byteOffset": 75096,
      "byteStride": 12,
      "name": "floatBufferViews",
      "target": 34962
    },
    {
      "buffer": 0,
      "byteLength": 186848,
      "byteOffset": 215232,
      "byteStride": 16,
      "name": "floatBufferViews",
      "target": 34962
    }
  ],
  "buffers": [
    {
      "byteLength": 402080,
      "uri": "scene.bin"
    }
  ],
  "images": [
    {
      "uri": "textures/_auto_9_baseColor.png"
    }
  ],
  "materials": [
    {
      "doubleSided": true,
      "emissiveFactor": [
        0,
        0,
        0
      ],
      "name": "_auto_9",
      "pbrMetallicRoughness": {
        "baseColorFactor": [
          1,
          1,
          1,
          1
        ],
        "baseColorTexture": {
          "index": 0,
          "texCoord": 0
        },
        "metallicFactor": 0,
        "roughnessFactor": 0.59999999999999998
      }
    },
    {
      "doubleSided": false,
      "emissiveFactor": [
        0,
        0,
        0
      ],
      "name": "_1",
      "pbrMetallicRoughness": {
        "baseColorFactor": [
          1,
          1,
          1,
          1
        ],
        "metallicFactor": 0,
        "roughnessFactor": 0.59999999999999998
      }
    },
    {
      "doubleSided": true,
      "emissiveFactor": [
        0,
        0,
        0
      ],
      "name": "Color_F2",
      "pbrMetallicRoughness": {
        "baseColorFactor": [
          0.14902000000000001,
          0.168627,
          0.13333300000000001,
          1
        ],
        "metallicFactor": 0,
        "roughnessFactor": 0.59999999999999998
      }
    },
    {
      "doubleSided": true,
      "emissiveFactor": [
        0,
        0,
        0
      ],
      "name": "Steve_Ja",
      "pbrMetallicRoughness": {
        "baseColorFactor": [
          0.129412,
          0.20000000000000001,
          0.196078,
          1
        ],
        "metallicFactor": 0,
        "roughnessFactor": 0.59999999999999998
      }
    },
    {
      "doubleSided": true,
      "emissiveFactor": [
        0,
        0,
        0
      ],
      "name": "Foregrou",
      "pbrMetallicRoughness": {
        "baseColorFactor": [
          0,
          0,
          0,
          1
        ],
        "metallicFactor": 0,
        "roughnessFactor": 0.59999999999999998
      }
    }
  ],
  "meshes": [
    {
      "primitives": [
        {
          "attributes": {
            "COLOR_0": 3,
            "NORMAL": 1,
            "POSITION": 0,
            "TANGENT": 2,
            "TEXCOORD_0": 4
          },
          "indices": 5,
          "material": 0,
          "mode": 4
        }
      ]
    },
    {
      "primitives": [
        {
          "attributes": {
            "COLOR_0": 9,
            "NORMAL": 7,
            "POSITION": 6,
            "TANGENT": 8
          },
          "indices": 10,
          "material": 1,
          "mode": 4
        }
      ]
    },
    {
      "primitives": [
        {
          "attributes": {
            "COLOR_0": 14,
            "NORMAL": 12,
            "POSITION": 11,
            "TANGENT": 13
          },
          "indices": 15,
          "material": 3,
          "mode": 4
        }
      ]
    },
    {
      "primitives": [
        {
          "attributes": {
            "COLOR_0": 19,
            "NORMAL": 17,
            "POSITION": 16,
            "TANGENT": 18,
            "TEXCOORD_0": 20
          },
          "indices": 21,
          "material": 0,
          "mode": 4
        }
      ]
    },
    {
      "primitives": [
        {
          "attributes": {
            "COLOR_0": 25,
            "NORMAL": 23,
            "POSITION": 22,
            "TANGENT": 24
          },
          "indices": 26,
          "material": 2,
          "mode": 4
        }
      ]
    },
    {
      "primitives": [
        {
          "attributes": {
            "COLOR_0": 30,
            "NORMAL": 28,
            "POSITION": 27,
            "TANGENT": 29
          },
          "indices": 31,
          "material": 4,
          "mode": 4
        }
      ]
    }
  ],
  "nodes": [
    {
      "children": [
        1
      ],
      "name": "RootNode (gltf orientation matrix)",
      "rotation": [
        -0.70710678118654746,
        -0,
        -0,
        0.70710678118654757
      ]
    },
    {
      "children": [
        2
      ],
      "name": "RootNode (model correction matrix)"
    },
    {
      "children": [
        3
      ],
      "name": "office desk.3ds"
    },
    {
      "children": [
        4
      ],
      "name": "Model"
    },
    {
      "children": [
        5
      ],
      "name": "silent_hil"
    },
    {
      "children": [
        6,
        9
      ],
      "name": "skpF5D1_1"
    },
    {
      "children": [
        7
      ],
      "name": "Group1"
    },
    {
      "children": [
        8
      ],
      "name": "Geode"
    },
    {
      "mesh": 0,
      "name": ""
    },
    {
      "children": [
        10,
        11,
        12,
        13,
        14
      ],
      "name": "Geode"
    },
    {
      "mesh": 1,
      "name": ""
    },
    {
      "mesh": 2,
      "name": ""
    },
    {
      "mesh": 3,
      "name": ""
    },
    {
      "mesh": 4,
      "name": ""
    },
    {
      "mesh": 5,
      "name": ""
    }
  ],
  "samplers": [
    {
      "magFilter": 9729,
      "minFilter": 9987,
      "wrapS": 10497,
      "wrapT": 10497
    }
  ],
  "scene": 0,
  "scenes": [
    {
      "name": "OSG_Scene",
      "nodes": [
        0
      ]
    }
  ],
  "textures": [
    {
      "sampler": 0,
      "source": 0
    }
  ]
}

